PathFileType	4	(X/Y/Z)	C:/Users/beibeiliu/ov580/test_trc/User3\out2_training_dense_right.trc
DataRate	CameraRate	NumFrames	NumMarkers	Units	OrigDataRate	OrigDataStartFrame	OrigNumFrames
120	120	10	19	mm	120	1	500
Frame#	Time	ThumbCMC			ThumbMCP			ThumbIP			ThumbTip			IndexMCP			IndexPIP			IndexTip			MiddleMCP			MiddlePIP			MiddleTip			RingMCP			RingPIP			RingTip			PinkyMCP			PinkyPIP			PinkyTip			BackHand1			BackHand2			BackHand3	
		X0	Y0	Z0	X1	Y1	Z1	X2	Y2	Z2	X3	Y3	Z3	X4	Y4	Z4	X5	Y5	Z5	X6	Y6	Z6	X7	Y7	Z7	X8	Y8	Z8	X9	Y9	Z9	X10	Y10	Z10	X11	Y11	Z11	X12	Y12	Z12	X13	Y13	Z13	X14	Y14	Z14	X15	Y15	Z15	X16	Y16	Z16	X17	Y17	Z17	X18	Y18	Z18	
0	0	135.76	13.1893	24.9564	116.379	7.38973	-2.67795	109.04	-0.358498	-31.3039	106.742	-8.88596	-52.2149	166.561	27.5321	-45.2786	164.237	26.2559	-75.9469	159.817	24.4269	-97.834	197.441	28.1532	-41.1915	200.244	30.7027	-70.3258	208.955	25.4378	-101.888	211.315	19.06	-29.257	222.253	22.1985	-54.3148	234.273	17.0389	-80.4642	224.297	2.53137	-10.1932	241.632	1.23441	-25.8821	257.362	-2.68254	-40.4936	198.687	22.4517	16.3706	192.069	26.6103	46.5597	165.215	32.6855	23.1179	
1	0.00833333	134.75	13.9488	19.6464	120.181	6.87106	-0.879982	111.127	0.122526	-32.414	103.241	-8.46161	-50.6924	166.254	26.8407	-45.4706	161.913	27.9385	-75.6478	163.478	22.8786	-101.048	193.508	28.4224	-41.4359	200.629	30.6815	-74.4881	209.098	25.8283	-103.986	209.83	20.8072	-31.8457	225.29	21.1523	-50.1201	233.013	17.7816	-80.3166	223.25	2.25826	-10.0982	242.48	1.44953	-26.827	255.222	-2.64475	-45.8944	198.05	22.1506	16.1165	192.026	25.7081	45.9084	165.493	33.9702	19.7581	
2	0.0166667	132.595	14.6917	24.3749	121.155	7.15814	-3.45456	109.665	0.910761	-32.0265	107.098	-7.55165	-51.795	166.918	27.4111	-46.0194	161.154	28.4699	-72.1882	164.119	23.763	-98.0418	195.273	30.3462	-46.1048	200.555	31.7535	-74.0921	210.017	25.7095	-105.251	212.283	20.3795	-29.664	221.84	22.8717	-51.2745	233.573	17.561	-78.7551	224.29	4.56552	-10.7124	241.311	1.16221	-24.7021	254.464	-1.85586	-42.0769	199.382	22.827	15.2178	195.922	26.4913	44.0134	167.221	34.5306	21.5902	
3	0.025	132.689	14.963	20.8327	118.502	7.70689	-1.8217	111.001	0.878947	-33.6273	105.51	-8.38217	-53.6179	165.089	27.697	-44.6969	162.132	27.6176	-76.7801	165.818	23.0276	-99.9591	198.898	29.2074	-43.2782	205.04	30.6794	-74.3004	212.052	24.5314	-102.988	211.813	22.2239	-31.3874	225.005	23.4985	-54.7772	232.915	17.7332	-79.9818	223.967	4.08887	-9.82738	239.939	1.75742	-23.5972	258.05	-3.19698	-44.788	197.496	25.1222	14.2099	193.651	24.7367	45.8478	164.859	34.2555	16.811	
4	0.0333333	132.684	16.1314	18.9995	120.506	7.77487	-2.95484	110.687	1.40789	-32.5003	107.138	-8.43139	-54.3781	167.898	28.6493	-48.3937	162.554	29.2716	-73.9192	166.655	23.1705	-99.2476	194.176	29.8012	-41.4611	203.459	30.8067	-74.8958	209.427	26.7183	-102.443	210.176	19.6378	-27.8291	223.118	23.9653	-56.3437	234.492	18.7007	-81.5235	224.526	2.43517	-7.2286	243.71	2.62181	-27.0924	258.699	-4.19124	-44.7719	197.578	24.0985	17.2531	197.215	26.078	46.4776	169.38	33.1668	21.7363	
5	0.0416667	134.19	15.2543	18.0088	123.383	7.02255	-3.36382	112.547	0.413915	-28.1983	107.908	-7.85653	-50.9553	165.344	28.0256	-47.3879	167.496	27.6486	-76.0065	161.702	24.2112	-102.736	197.226	29.3283	-41.2073	205.632	31.42	-70.8665	209.15	27.1056	-101.048	211.172	21.5222	-31.2104	225.697	23.669	-52.3718	231.921	18.9031	-78.3484	228.358	3.47491	-9.25639	241.201	3.20703	-24.7544	262.075	-2.98198	-44.4486	202.758	22.4449	15.6459	195.763	25.6202	42.8177	170.693	33.2063	17.7372	
6	0.05	136.63	14.049	19.3992	120.26	8.35471	-2.77194	109.222	1.97219	-31.8426	104.608	-7.59466	-51.4688	167.127	27.803	-47.554	162.866	28.5133	-76.6589	167.487	23.738	-100.839	195.362	30.8226	-42.8781	203.657	31.8689	-71.6359	210.599	26.6433	-102.852	215.422	21.1458	-29.7854	227.028	23.0912	-52.3583	235.768	18.498	-77.4293	225.104	3.37171	-8.72543	245.947	1.11362	-24.9581	262.345	-3.54728	-44.7944	199.249	24.7309	17.3008	193.298	26.2217	44.2913	168.582	33.2056	17.7319	
7	0.0583333	134.9	14.2544	23.5022	121.363	8.21684	-2.85773	110.891	1.8353	-30.3412	105.983	-6.54181	-53.0879	165.764	29.2569	-47.6192	166.588	27.7082	-77.7189	165.876	24.7371	-103.346	198.272	30.0412	-44.1161	204.655	31.4462	-72.9571	214.784	25.5923	-105.747	216.762	20.3839	-30.3863	228.913	22.6073	-53.0184	233.997	19.9681	-77.9471	225.245	3.53777	-7.23203	242.209	2.83652	-23.2885	262.51	-1.59272	-41.5321	200.638	26.2281	13.2605	194.134	27.1873	46.4958	166.227	34.8055	20.2615	
8	0.0666667	139.102	13.6124	19.3487	121.631	7.71319	-2.33061	113.154	1.21044	-28.1719	106.255	-7.40384	-50.4033	168.283	28.1495	-48.5949	165.498	29.0003	-75.9655	167.123	25.3904	-98.3966	199.153	29.8893	-42.4384	206.757	30.827	-74.6175	211.262	26.7146	-100.479	212.847	20.4545	-27.4963	225.468	22.9016	-51.2091	237.249	18.8421	-79.9405	227.879	3.90312	-7.78171	243.191	2.68705	-26.1483	261.813	-3.58787	-38.8707	204.696	24.9048	16.144	198.533	25.6707	44.5066	169.763	32.8278	22.0725	
9	0.075	136.263	14.7746	23.6712	121.836	6.90159	-2.86767	112.109	1.31244	-28.3055	106.764	-6.9085	-52.1181	170.988	28.4476	-47.9452	164.214	28.7227	-72.4426	166.658	24.0268	-101.076	197.304	31.5168	-45.4271	206.418	30.9829	-74.3612	210.767	27.7321	-101.516	214.419	20.0403	-27.1772	225.087	23.0484	-51.364	235.754	19.0441	-78.5478	230.243	2.96793	-6.7916	244.549	2.43204	-24.8921	259.687	-0.669916	-42.5313	199.337	23.0776	17.0044	199.076	24.4189	43.4735	172.283	33.8872	23.4787	
